<?xml version="1.0" encoding="utf-8"?>
<!-- Generator: Adobe Illustrator 26.0.1, SVG Export Plug-In . SVG Version: 6.00 Build 0)  -->
<svg version="1.1" id="Layer_1" xmlns="http://www.w3.org/2000/svg" xmlns:xlink="http://www.w3.org/1999/xlink" x="0px" y="0px"
	 viewBox="0 0 306.41 302.72" style="enable-background:new 0 0 306.41 302.72;" xml:space="preserve">
<style type="text/css">
	.st0{fill:none;stroke:#353535;stroke-width:3;stroke-miterlimit:10;}
	.st1{fill:#0092D0;}
	.st2{fill:#231F20;}
	.st3{fill:#FFFFFF;}
	.st4{fill:#0492CF;}
	.st5{fill:#ED3024;}
	.st6{fill:#A4541C;}
	.st7{fill:#30AAD7;}
	.st8{fill:#1D3D7C;}
	.st9{fill:#1F3D7B;}
	.st10{fill:#A15424;}
	.st11{fill:#969696;}
	.st12{fill:#333333;}
	.st13{fill:#CBCBCA;}
	.st14{fill:#1A1A1A;}
	.st15{fill:#9F5425;stroke:#A4541C;stroke-miterlimit:10;}
	.st16{fill:none;stroke:#000000;stroke-width:5.1052;stroke-miterlimit:10;stroke-opacity:0;}
	.st17{fill:#B05E27;stroke:#A4541C;stroke-miterlimit:10;}
	.st18{fill:#676767;}
	.st19{fill:#B05E27;}
	.st20{fill:#979797;}
	.st21{fill:#A4541C;stroke:#A4541C;stroke-miterlimit:10;}
</style>
<path class="st7" d="M253.25,243.05l-40.5-40.5l15.37-15.37L112.87,71.94l8.03-8.03l-8.23-8.23l-8.03,8.03l-0.12-0.12L89.72,78.38
	l-4.74-4.74l13.95-13.95l-8.22-8.23L53.16,89.01l8.22,8.22l14.4-14.4l4.74,4.74l-14.97,14.97l0.12,0.12l-9.19,9.19l8.22,8.22
	l9.19-9.19l115.25,115.25l15.37-15.37l40.49,40.49L253.25,243.05z M164.59,185.12l13.08-13.08l-9.2-9.19l-13.08,13.08l-7.03-7.03
	l7.8-7.8l-9.19-9.19l-7.8,7.8l-6.01-6.01l13.23-13.23l-9.2-9.19l-13.22,13.22l-6.16-6.16l8.69-8.69l-9.2-9.19l-8.69,8.69l-6.49-6.49
	l13.64-13.64l-8.22-8.22L93.9,114.43l-11.77-11.77l22.51-22.5l107.02,107.02l-22.5,22.5L164.59,185.12z"/>
</svg>
